<mxfile host="app.diagrams.net" agent="Mozilla/5.0 (Windows NT 10.0; Win64; x64) AppleWebKit/537.36 (KHTML, like Gecko) Chrome/128.0.0.0 Safari/537.36" version="24.7.13">
  <diagram name="1 oldal" id="W-ZV-d0PbIjvZ-fhbscG">
    <mxGraphModel dx="1674" dy="1949" grid="1" gridSize="10" guides="1" tooltips="1" connect="1" arrows="1" fold="1" page="1" pageScale="1" pageWidth="827" pageHeight="1169" math="0" shadow="0">
      <root>
        <mxCell id="0" />
        <mxCell id="1" parent="0" />
        <mxCell id="KEdCzkDYHWty33ifr_WR-3" value="" style="edgeStyle=orthogonalEdgeStyle;rounded=0;orthogonalLoop=1;jettySize=auto;html=1;" edge="1" parent="1" source="KEdCzkDYHWty33ifr_WR-1" target="KEdCzkDYHWty33ifr_WR-2">
          <mxGeometry relative="1" as="geometry" />
        </mxCell>
        <mxCell id="KEdCzkDYHWty33ifr_WR-1" value="start" style="ellipse;whiteSpace=wrap;html=1;" vertex="1" parent="1">
          <mxGeometry x="230" y="20" width="120" height="80" as="geometry" />
        </mxCell>
        <mxCell id="KEdCzkDYHWty33ifr_WR-5" value="" style="edgeStyle=orthogonalEdgeStyle;rounded=0;orthogonalLoop=1;jettySize=auto;html=1;" edge="1" parent="1" source="KEdCzkDYHWty33ifr_WR-2" target="KEdCzkDYHWty33ifr_WR-4">
          <mxGeometry relative="1" as="geometry" />
        </mxCell>
        <mxCell id="KEdCzkDYHWty33ifr_WR-2" value="Be: N, X, A, B, C" style="shape=parallelogram;perimeter=parallelogramPerimeter;whiteSpace=wrap;html=1;fixedSize=1;" vertex="1" parent="1">
          <mxGeometry x="230" y="130" width="120" height="60" as="geometry" />
        </mxCell>
        <mxCell id="KEdCzkDYHWty33ifr_WR-7" value="" style="edgeStyle=orthogonalEdgeStyle;rounded=0;orthogonalLoop=1;jettySize=auto;html=1;" edge="1" parent="1" source="KEdCzkDYHWty33ifr_WR-4" target="KEdCzkDYHWty33ifr_WR-6">
          <mxGeometry relative="1" as="geometry" />
        </mxCell>
        <mxCell id="KEdCzkDYHWty33ifr_WR-4" value="A, D, E, i = 0, 0, 0, 2" style="whiteSpace=wrap;html=1;" vertex="1" parent="1">
          <mxGeometry x="230" y="270" width="120" height="60" as="geometry" />
        </mxCell>
        <mxCell id="KEdCzkDYHWty33ifr_WR-9" value="" style="edgeStyle=orthogonalEdgeStyle;rounded=0;orthogonalLoop=1;jettySize=auto;html=1;" edge="1" parent="1" source="KEdCzkDYHWty33ifr_WR-6" target="KEdCzkDYHWty33ifr_WR-8">
          <mxGeometry relative="1" as="geometry" />
        </mxCell>
        <mxCell id="KEdCzkDYHWty33ifr_WR-6" value="i &amp;lt; n" style="rhombus;whiteSpace=wrap;html=1;" vertex="1" parent="1">
          <mxGeometry x="250" y="370" width="80" height="80" as="geometry" />
        </mxCell>
        <mxCell id="KEdCzkDYHWty33ifr_WR-11" value="" style="edgeStyle=orthogonalEdgeStyle;rounded=0;orthogonalLoop=1;jettySize=auto;html=1;" edge="1" parent="1" source="KEdCzkDYHWty33ifr_WR-8" target="KEdCzkDYHWty33ifr_WR-10">
          <mxGeometry relative="1" as="geometry" />
        </mxCell>
        <mxCell id="KEdCzkDYHWty33ifr_WR-8" value="X(i-1)=0&lt;br&gt;and&lt;br&gt;X(i)&amp;gt; 0" style="rhombus;whiteSpace=wrap;html=1;" vertex="1" parent="1">
          <mxGeometry x="410" y="370" width="80" height="80" as="geometry" />
        </mxCell>
        <mxCell id="KEdCzkDYHWty33ifr_WR-13" value="" style="edgeStyle=orthogonalEdgeStyle;rounded=0;orthogonalLoop=1;jettySize=auto;html=1;" edge="1" parent="1" source="KEdCzkDYHWty33ifr_WR-10" target="KEdCzkDYHWty33ifr_WR-12">
          <mxGeometry relative="1" as="geometry" />
        </mxCell>
        <mxCell id="KEdCzkDYHWty33ifr_WR-10" value="D, E = 0, 0," style="whiteSpace=wrap;html=1;" vertex="1" parent="1">
          <mxGeometry x="390" y="270" width="120" height="60" as="geometry" />
        </mxCell>
        <mxCell id="KEdCzkDYHWty33ifr_WR-15" value="" style="edgeStyle=orthogonalEdgeStyle;rounded=0;orthogonalLoop=1;jettySize=auto;html=1;" edge="1" parent="1" source="KEdCzkDYHWty33ifr_WR-12" target="KEdCzkDYHWty33ifr_WR-14">
          <mxGeometry relative="1" as="geometry" />
        </mxCell>
        <mxCell id="KEdCzkDYHWty33ifr_WR-12" value="X(i)&amp;gt;0" style="rhombus;whiteSpace=wrap;html=1;" vertex="1" parent="1">
          <mxGeometry x="410" y="120" width="80" height="80" as="geometry" />
        </mxCell>
        <mxCell id="KEdCzkDYHWty33ifr_WR-17" value="" style="edgeStyle=orthogonalEdgeStyle;rounded=0;orthogonalLoop=1;jettySize=auto;html=1;" edge="1" parent="1" source="KEdCzkDYHWty33ifr_WR-14" target="KEdCzkDYHWty33ifr_WR-16">
          <mxGeometry relative="1" as="geometry" />
        </mxCell>
        <mxCell id="KEdCzkDYHWty33ifr_WR-14" value="D++" style="whiteSpace=wrap;html=1;" vertex="1" parent="1">
          <mxGeometry x="390" y="10" width="120" height="60" as="geometry" />
        </mxCell>
        <mxCell id="KEdCzkDYHWty33ifr_WR-19" value="" style="edgeStyle=orthogonalEdgeStyle;rounded=0;orthogonalLoop=1;jettySize=auto;html=1;" edge="1" parent="1" source="KEdCzkDYHWty33ifr_WR-16" target="KEdCzkDYHWty33ifr_WR-18">
          <mxGeometry relative="1" as="geometry" />
        </mxCell>
        <mxCell id="KEdCzkDYHWty33ifr_WR-16" value="X(i)&amp;gt;E" style="rhombus;whiteSpace=wrap;html=1;" vertex="1" parent="1">
          <mxGeometry x="410" y="-140" width="80" height="80" as="geometry" />
        </mxCell>
        <mxCell id="KEdCzkDYHWty33ifr_WR-21" value="" style="edgeStyle=orthogonalEdgeStyle;rounded=0;orthogonalLoop=1;jettySize=auto;html=1;" edge="1" parent="1" source="KEdCzkDYHWty33ifr_WR-18" target="KEdCzkDYHWty33ifr_WR-20">
          <mxGeometry relative="1" as="geometry" />
        </mxCell>
        <mxCell id="KEdCzkDYHWty33ifr_WR-18" value="E= X(i)" style="whiteSpace=wrap;html=1;" vertex="1" parent="1">
          <mxGeometry x="390" y="-250" width="120" height="60" as="geometry" />
        </mxCell>
        <mxCell id="KEdCzkDYHWty33ifr_WR-23" value="" style="edgeStyle=orthogonalEdgeStyle;rounded=0;orthogonalLoop=1;jettySize=auto;html=1;" edge="1" parent="1" source="KEdCzkDYHWty33ifr_WR-20" target="KEdCzkDYHWty33ifr_WR-22">
          <mxGeometry relative="1" as="geometry" />
        </mxCell>
        <mxCell id="KEdCzkDYHWty33ifr_WR-20" value="X(i) = 0&lt;br&gt;and&lt;br&gt;X(i-1)&amp;gt; 0" style="rhombus;whiteSpace=wrap;html=1;" vertex="1" parent="1">
          <mxGeometry x="410" y="-370" width="80" height="80" as="geometry" />
        </mxCell>
        <mxCell id="KEdCzkDYHWty33ifr_WR-25" value="" style="edgeStyle=orthogonalEdgeStyle;rounded=0;orthogonalLoop=1;jettySize=auto;html=1;" edge="1" parent="1" source="KEdCzkDYHWty33ifr_WR-22" target="KEdCzkDYHWty33ifr_WR-24">
          <mxGeometry relative="1" as="geometry" />
        </mxCell>
        <mxCell id="KEdCzkDYHWty33ifr_WR-22" value="A++" style="whiteSpace=wrap;html=1;" vertex="1" parent="1">
          <mxGeometry x="390" y="-470" width="120" height="60" as="geometry" />
        </mxCell>
        <mxCell id="KEdCzkDYHWty33ifr_WR-27" value="" style="edgeStyle=orthogonalEdgeStyle;rounded=0;orthogonalLoop=1;jettySize=auto;html=1;" edge="1" parent="1" source="KEdCzkDYHWty33ifr_WR-24" target="KEdCzkDYHWty33ifr_WR-26">
          <mxGeometry relative="1" as="geometry" />
        </mxCell>
        <mxCell id="KEdCzkDYHWty33ifr_WR-24" value="B(A) = D" style="whiteSpace=wrap;html=1;" vertex="1" parent="1">
          <mxGeometry x="390" y="-590" width="120" height="60" as="geometry" />
        </mxCell>
        <mxCell id="KEdCzkDYHWty33ifr_WR-26" value="C(A) = E" style="whiteSpace=wrap;html=1;" vertex="1" parent="1">
          <mxGeometry x="390" y="-690" width="120" height="60" as="geometry" />
        </mxCell>
        <mxCell id="KEdCzkDYHWty33ifr_WR-28" value="" style="endArrow=none;html=1;rounded=0;" edge="1" parent="1" target="KEdCzkDYHWty33ifr_WR-26">
          <mxGeometry width="50" height="50" relative="1" as="geometry">
            <mxPoint x="120" y="-660" as="sourcePoint" />
            <mxPoint x="440" y="-430" as="targetPoint" />
          </mxGeometry>
        </mxCell>
        <mxCell id="KEdCzkDYHWty33ifr_WR-29" value="" style="endArrow=none;html=1;rounded=0;" edge="1" parent="1">
          <mxGeometry width="50" height="50" relative="1" as="geometry">
            <mxPoint x="120" y="410" as="sourcePoint" />
            <mxPoint x="120" y="-660" as="targetPoint" />
          </mxGeometry>
        </mxCell>
        <mxCell id="KEdCzkDYHWty33ifr_WR-30" value="" style="endArrow=classic;html=1;rounded=0;" edge="1" parent="1" target="KEdCzkDYHWty33ifr_WR-6">
          <mxGeometry width="50" height="50" relative="1" as="geometry">
            <mxPoint x="120" y="410" as="sourcePoint" />
            <mxPoint x="440" y="270" as="targetPoint" />
          </mxGeometry>
        </mxCell>
        <mxCell id="KEdCzkDYHWty33ifr_WR-31" value="I" style="text;html=1;align=center;verticalAlign=middle;whiteSpace=wrap;rounded=0;" vertex="1" parent="1">
          <mxGeometry x="300" y="370" width="60" height="30" as="geometry" />
        </mxCell>
        <mxCell id="KEdCzkDYHWty33ifr_WR-32" value="I" style="text;html=1;align=center;verticalAlign=middle;whiteSpace=wrap;rounded=0;" vertex="1" parent="1">
          <mxGeometry x="384" y="360" width="60" height="30" as="geometry" />
        </mxCell>
        <mxCell id="KEdCzkDYHWty33ifr_WR-33" value="I" style="text;html=1;align=center;verticalAlign=middle;whiteSpace=wrap;rounded=0;" vertex="1" parent="1">
          <mxGeometry x="384" y="-150" width="60" height="30" as="geometry" />
        </mxCell>
        <mxCell id="KEdCzkDYHWty33ifr_WR-34" value="I" style="text;html=1;align=center;verticalAlign=middle;whiteSpace=wrap;rounded=0;" vertex="1" parent="1">
          <mxGeometry x="444" y="110" width="60" height="30" as="geometry" />
        </mxCell>
        <mxCell id="KEdCzkDYHWty33ifr_WR-35" value="I" style="text;html=1;align=center;verticalAlign=middle;whiteSpace=wrap;rounded=0;" vertex="1" parent="1">
          <mxGeometry x="460" y="-380" width="60" height="30" as="geometry" />
        </mxCell>
        <mxCell id="KEdCzkDYHWty33ifr_WR-36" value="" style="endArrow=none;html=1;rounded=0;" edge="1" parent="1" target="KEdCzkDYHWty33ifr_WR-8">
          <mxGeometry width="50" height="50" relative="1" as="geometry">
            <mxPoint x="570" y="410" as="sourcePoint" />
            <mxPoint x="440" y="270" as="targetPoint" />
          </mxGeometry>
        </mxCell>
        <mxCell id="KEdCzkDYHWty33ifr_WR-37" value="" style="endArrow=none;html=1;rounded=0;" edge="1" parent="1">
          <mxGeometry width="50" height="50" relative="1" as="geometry">
            <mxPoint x="570" y="160" as="sourcePoint" />
            <mxPoint x="570" y="410" as="targetPoint" />
          </mxGeometry>
        </mxCell>
        <mxCell id="KEdCzkDYHWty33ifr_WR-38" value="" style="endArrow=classic;html=1;rounded=0;" edge="1" parent="1" target="KEdCzkDYHWty33ifr_WR-12">
          <mxGeometry width="50" height="50" relative="1" as="geometry">
            <mxPoint x="570" y="160" as="sourcePoint" />
            <mxPoint x="440" y="270" as="targetPoint" />
          </mxGeometry>
        </mxCell>
        <mxCell id="KEdCzkDYHWty33ifr_WR-39" value="" style="endArrow=none;html=1;rounded=0;" edge="1" parent="1" target="KEdCzkDYHWty33ifr_WR-16">
          <mxGeometry width="50" height="50" relative="1" as="geometry">
            <mxPoint x="600" y="-100" as="sourcePoint" />
            <mxPoint x="440" y="-230" as="targetPoint" />
          </mxGeometry>
        </mxCell>
        <mxCell id="KEdCzkDYHWty33ifr_WR-40" value="" style="endArrow=none;html=1;rounded=0;" edge="1" parent="1">
          <mxGeometry width="50" height="50" relative="1" as="geometry">
            <mxPoint x="600" y="-330" as="sourcePoint" />
            <mxPoint x="600" y="-100" as="targetPoint" />
          </mxGeometry>
        </mxCell>
        <mxCell id="KEdCzkDYHWty33ifr_WR-41" value="" style="endArrow=classic;html=1;rounded=0;" edge="1" parent="1" target="KEdCzkDYHWty33ifr_WR-20">
          <mxGeometry width="50" height="50" relative="1" as="geometry">
            <mxPoint x="600" y="-330" as="sourcePoint" />
            <mxPoint x="440" y="-230" as="targetPoint" />
          </mxGeometry>
        </mxCell>
        <mxCell id="KEdCzkDYHWty33ifr_WR-42" value="H" style="text;html=1;align=center;verticalAlign=middle;whiteSpace=wrap;rounded=0;" vertex="1" parent="1">
          <mxGeometry x="460" y="-150" width="60" height="30" as="geometry" />
        </mxCell>
        <mxCell id="KEdCzkDYHWty33ifr_WR-43" value="" style="endArrow=none;html=1;rounded=0;" edge="1" parent="1" target="KEdCzkDYHWty33ifr_WR-12">
          <mxGeometry width="50" height="50" relative="1" as="geometry">
            <mxPoint x="370" y="160" as="sourcePoint" />
            <mxPoint x="440" y="170" as="targetPoint" />
          </mxGeometry>
        </mxCell>
        <mxCell id="KEdCzkDYHWty33ifr_WR-44" value="" style="endArrow=none;html=1;rounded=0;" edge="1" parent="1">
          <mxGeometry width="50" height="50" relative="1" as="geometry">
            <mxPoint x="370" y="-100" as="sourcePoint" />
            <mxPoint x="370" y="160" as="targetPoint" />
          </mxGeometry>
        </mxCell>
        <mxCell id="KEdCzkDYHWty33ifr_WR-45" value="" style="endArrow=classic;html=1;rounded=0;" edge="1" parent="1" target="KEdCzkDYHWty33ifr_WR-16">
          <mxGeometry width="50" height="50" relative="1" as="geometry">
            <mxPoint x="370" y="-100" as="sourcePoint" />
            <mxPoint x="440" y="170" as="targetPoint" />
          </mxGeometry>
        </mxCell>
        <mxCell id="KEdCzkDYHWty33ifr_WR-46" value="H" style="text;html=1;align=center;verticalAlign=middle;whiteSpace=wrap;rounded=0;" vertex="1" parent="1">
          <mxGeometry x="384" y="110" width="60" height="30" as="geometry" />
        </mxCell>
        <mxCell id="KEdCzkDYHWty33ifr_WR-47" value="H" style="text;html=1;align=center;verticalAlign=middle;whiteSpace=wrap;rounded=0;" vertex="1" parent="1">
          <mxGeometry x="384" y="-380" width="60" height="30" as="geometry" />
        </mxCell>
        <mxCell id="KEdCzkDYHWty33ifr_WR-48" value="H" style="text;html=1;align=center;verticalAlign=middle;whiteSpace=wrap;rounded=0;" vertex="1" parent="1">
          <mxGeometry x="460" y="360" width="60" height="30" as="geometry" />
        </mxCell>
        <mxCell id="KEdCzkDYHWty33ifr_WR-49" value="" style="endArrow=none;html=1;rounded=0;" edge="1" parent="1" target="KEdCzkDYHWty33ifr_WR-20">
          <mxGeometry width="50" height="50" relative="1" as="geometry">
            <mxPoint x="340" y="-330" as="sourcePoint" />
            <mxPoint x="440" y="-430" as="targetPoint" />
          </mxGeometry>
        </mxCell>
        <mxCell id="KEdCzkDYHWty33ifr_WR-50" value="" style="endArrow=none;html=1;rounded=0;" edge="1" parent="1">
          <mxGeometry width="50" height="50" relative="1" as="geometry">
            <mxPoint x="340" y="-660" as="sourcePoint" />
            <mxPoint x="340" y="-330" as="targetPoint" />
          </mxGeometry>
        </mxCell>
        <mxCell id="KEdCzkDYHWty33ifr_WR-51" value="" style="endArrow=classic;html=1;rounded=0;exitX=0.5;exitY=1;exitDx=0;exitDy=0;" edge="1" parent="1" source="KEdCzkDYHWty33ifr_WR-6">
          <mxGeometry width="50" height="50" relative="1" as="geometry">
            <mxPoint x="390" y="320" as="sourcePoint" />
            <mxPoint x="290" y="490" as="targetPoint" />
          </mxGeometry>
        </mxCell>
        <mxCell id="KEdCzkDYHWty33ifr_WR-52" value="stop" style="ellipse;whiteSpace=wrap;html=1;" vertex="1" parent="1">
          <mxGeometry x="230" y="490" width="120" height="80" as="geometry" />
        </mxCell>
      </root>
    </mxGraphModel>
  </diagram>
</mxfile>
